/* XPM */
static char *_41b8a1877b840bcfc15528914e6502bLQlpUbKMSHQFvBIh[] = {
/* columns rows colors chars-per-pixel */
"64 64 16 1 ",
"  c #0A0808",
". c #322A2A",
"X c #4A3737",
"o c #5E4A4A",
"O c #6E5858",
"+ c #7B6565",
"@ c #887272",
"# c #948080",
"$ c #9F8E8E",
"% c #AA9D9D",
"& c #B5ACAC",
"* c #C0BBBB",
"= c #CBC4C4",
"- c #D6CDCD",
"; c #E1D6D6",
": c #000000",
/* pixels */
"::::::::::::::::::::::::::::::::::::::::::::::::::::::::::::::::",
"::::::::::::::::::::::::::::::::::::::::::::::::::::::::::::::::",
"::::::::::::::::::::::::::::::::::::::::::::::::::::::::::::::::",
"::::::::::::::::::::::::::::::::::::::::::::::::::::::::::::::::",
"::::::::::::::::::::::::::::::::::::::::::::::::::::::::::::::::",
"::::::::::::::::::::::::::::::::::::::::::::::::::::::::::::::::",
"::::::::::::::::::::::::::::::::::::::::::::::::::::::::::::::::",
"::::::::::::::::::::::::::::::::::::::::::::::::::::::::::::::::",
"::::::::::::::::::::::::::::::::::::::::::::::::::::::::::::::::",
"::::::::::::::::::::::::::::::::::::::::::::::::::::::::::::::::",
"::::::::::::::::;*******-::::::::::::::::;&$$$$$*;::::::::::::::",
"::::::::::::::::%       &::::::::::::::*+         +*::::::::::::",
"::::::::::::::::X      X::::::::::::::#             #:::::::::::",
":::::::::::::::%       %:::::::::::::@               @::::::::::",
":::::::::::::::O      .:::::::::::::$                 $:::::::::",
"::::::::::::::*       $::::::::::::-                  .;::::::::",
"::::::::::::::O       ;::::::::::::@                   $::::::::",
":::::::::::::-       @::::::::::::;       .%;:-$       +::::::::",
":::::::::::::@       -::::::::::::&       =:::::$      O::::::::",
"::::::::::::-       +:::::::::::::$      @::::::=       ::::::::",
"::::::::::::$       *:::::::::::::O      %::::::=      .::::::::",
":::::::::::;.      O::::::::::::::=******;::::::&      O::::::::",
":::::::::::$       %::::::::::::::::::::::::::::+      +::::::::",
":::::::::::X      X::::::::::::::::::::::::::::=       $::::::::",
"::::::::::%       $:::::::::::::::::::::::::::;o       -::::::::",
"::::::::::X      .;:=******;::::::::::::::::::@       O:::::::::",
":::::::::*       $::O      *:::::::::::::::::%        %:::::::::",
":::::::::O       -::O      *::::::::::::::::=.       O::::::::::",
"::::::::*       @:::O      *:::::::::::::::;X       .=::::::::::",
"::::::::@       =:::O      *:::::::::::::::+        %:::::::::::",
":::::::-       O::::O      *::::::::::::::$        @::::::::::::",
":::::::@       *::::O      *:::::::::::::=        o:::::::::::::",
"::::::;.      X:::::O      *::::::::::::;X       .;:::::::::::::",
"::::::$       %:::::O      *::::::::::::+        =::::::::::::::",
":::::;.      .******o      $**:::::::::$        $:::::::::::::::",
":::::*                        ::::::::*        @::::::::::::::::",
":::::*                        :::::::;.       o;::::::::::::::::",
":::::*                        :::::::O       .-:::::::::::::::::",
":::::*                        ::::::$        *::::::::::::::::::",
":::::*                        :::::&        $:::::::::::::::::::",
":::::*                        ::::-.       .$$$$$$$$$$$$::::::::",
":::::-$$$$$$$$$$$$$$X      @$$::::*                     X:::::::",
"::::::::::::::::::::O      *::::::*                     @:::::::",
"::::::::::::::::::::O      *::::::*                     @:::::::",
"::::::::::::::::::::O      *::::::*                     @:::::::",
"::::::::::::::::::::O      *::::::*                     @:::::::",
"::::::::::::::::::::O******O::::::**********************::::::::",
"::::::::::::::::::::::::::::::::::::::::::::::::::::::::::::::::",
"::::::::::::::::::::::::::::::::::::::::::::::::::::::::::::::::",
"::::::::::::::::::::::::::::::::::::::::::::::::::::::::::::::::",
"::::::::::::::::::::::::::::::::::::::::::::::::::::::::::::::::",
"::::::::::::::::::::::::::::::::::::::::::::::::::::::::::::::::",
"::::::::::::::::::::::::::::::::::::::::::::::::::::::::::::::::",
"::::::::::::::::::::::::::::::::::::::::::::::::::::::::::::::::",
"::::::::::::::::::::::::::::::::::::::::::::::::::::::::::::::::",
"::::::::::::::::::::::::::::::::::::::::::::::::::::::::::::::::",
"::::::::::::::::::::::::::::::::::::::::::::::::::::::::::::::::",
"::::::::::::::::::::::::::::::::::::::::::::::::::::::::::::::::",
"::::::::::::::::::::::::::::::::::::::::::::::::::::::::::::::::",
"::::::::::::::::::::::::::::::::::::::::::::::::::::::::::::::::",
"::::::::::::::::::::::::::::::::::::::::::::::::::::::::::::::::",
"::::::::::::::::::::::::::::::::::::::::::::::::::::::::::::::::",
"::::::::::::::::::::::::::::::::::::::::::::::::::::::::::::::::",
"::::::::::::::::::::::::::::::::::::::::::::::::::::::::::::::::"
};